{"title":"Simon.Schamas.Power.Of.Art.2006.PROPER.Part.III.DVDRip.XViD-SPRi","uid":6688278,"size":739554798,"categoryP":"video","categoryS":"movies","magnet":"?xt=urn:btih:c5ac2d8b5b581586135815dc47523a8fd3f77ff7&amp;dn=Simon.Schamas.Power.Of.Art.2006.PROPER.Part.III.DVDRip.XViD-SPRi&amp;tr=udp%3A%2F%2Ftracker.openbittorrent.com%3A80&amp;tr=udp%3A%2F%2Fopen.demonii.com%3A1337&amp;tr=udp%3A%2F%2Ftracker.coppersurfer.tk%3A6969&amp;tr=udp%3A%2F%2Fexodus.desync.com%3A6969","seeders":0,"leechers":0,"uploader":"TvTeam","files":5,"time":1316495137,"description":". \n  &lt;a href=&quot;\nhttp://www.torrenting.com/&quot; rel=&quot;nofollow&quot; target=&quot;_NEW&quot;&gt;\nhttp://www.torrenting.com/&lt;/a&gt;        :     Greatest Movie Tracker on The Net!!!\n &lt;a href=&quot;\nhttp://www.Torrenting.com&quot; rel=&quot;nofollow&quot; target=&quot;_NEW&quot;&gt;\nhttp://www.Torrenting.com&lt;/a&gt;          :     Once &amp; For all ;)\n\n\n               www . Torrenting . Com \n\n(((((((((((((= Enjoy No RAR releases =))))))))))))))))))))\n\n\n...................................NFO:....................................\n\n.\n                                                     \n                                                   \n                                                         \n                                                          \n                                                           \n                                                          \n                                                          \n                                                          \n                                                           \n                                                         \n                                                          \n                                                        \n                                                      \n                                     \n                                                 \n                                                   \n                                             \n                                              \n                                                     \n                                                      \n                                                      \n                                                      \n                                                    \n                                                     \n                                                   \n                                                     \n                                                     \n                                                      \n                                                     \n                                                      \n                                                    \n                 ARTiCHOKE                        \n                                                \n                      \n                                                        \n                                                      \n                                                      \n                                               \n                                          \n                                                   \n                                            \n                                                    \n                                                       \n                                                        \n                                                      \n                                                \n                                                        \n                                                 \n                                              \n                                                  \n                                                \n                                                  \n                                        \n\n      \n                                \n      SPRiNTER proudly presents...     \n                                \n      \n \n Simon.Schamas.Power.Of.Art.2006.Part.III.DVDRip.XViD-SPRiNTER\n &lt;a href=&quot; http://www.bbc.co.uk/arts/powerofart/&quot; rel=&quot;nofollow&quot; target=&quot;_NEW&quot;&gt; http://www.bbc.co.uk/arts/powerofart/&lt;/a&gt;\n \n\n Date: 2011.09\n\n \n\n      \n                 \n      Release notes     \n                 \n      \n\n \n\nprevious release was bad.res + nuked..\n\n\n      \n           \n     Greetings    \n           \n      \n\n\nNTX FiCO HNR CiNEFiLE AEN HUMANiSM TASTE 0MNiDVD\n\n\n      \n           \n      Details     \n           \n      \n\nFormat                           : AVI\nFormat/Info                      : Audio Video Interleave\nFile size                        : 694 MiB\nDuration                         : 57mn 13s\nOverall bit rate                 : 1 694 Kbps\nWriting application              : Nandub v1.0rc2\nWriting library                  : Nandub build 1853/release\n\nVideo\nID                               : 0\nFormat                           : MPEG-4 Visual\nFormat profile                   : Advanced Simple@L5\nFormat settings, BVOP            : No\nFormat settings, QPel            : No\nFormat settings, GMC             : No warppoints\nFormat settings, Matrix          : Default (H.263)\nCodec ID                         : XVID\nCodec ID/Hint                    : XviD\nDuration                         : 57mn 13s\nBit rate                         : 1 551 Kbps\nWidth                            : 624 pixels\nHeight                           : 336 pixels\nDisplay aspect ratio             : 1.857\nFrame rate                       : 25.000 fps\nColor space                      : YUV\nChroma subsampling               : 4:2:0\nBit depth                        : 8 bits\nScan type                        : Progressive\nCompression mode                 : Lossy\nBits/(Pixel*Frame)               : 0.296\nStream size                      : 635 MiB (92%)\nWriting library                  : XviD 61\n\nAudio\nID                               : 1\nFormat                           : MPEG Audio\nFormat version                   : Version 1\nFormat profile                   : Layer 3\nCodec ID                         : 55\nCodec ID/Hint                    : MP3\nDuration                         : 57mn 12s\nBit rate mode                    : Variable\nBit rate                         : 130 Kbps\nChannel(s)                       : 2 channels\nSampling rate                    : 48.0 KHz\nCompression mode                 : Lossy\nStream size                      : 53.3 MiB (8%)\nAlignment                        : Aligned on interleaves\nInterleave, duration             : 24 ms (0.60 video frame)\nInterleave, preload duration     : 243 ms\nWriting library                  : LAME3.89 (alpha)","torrent":{"xt":"urn:btih:c5ac2d8b5b581586135815dc47523a8fd3f77ff7","amp;dn":"Simon.Schamas.Power.Of.Art.2006.PROPER.Part.III.DVDRip.XViD-SPRi","amp;tr":["udp%3A%2F%2Ftracker.openbittorrent.com%3A80","udp%3A%2F%2Fopen.demonii.com%3A1337","udp%3A%2F%2Ftracker.coppersurfer.tk%3A6969","udp%3A%2F%2Fexodus.desync.com%3A6969"],"infoHash":"c5ac2d8b5b581586135815dc47523a8fd3f77ff7","infoHashBuffer":{"type":"Buffer","data":[197,172,45,139,91,88,21,134,19,88,21,220,71,82,58,143,211,247,127,247]},"announce":[],"urlList":[]}}